<svg width="815" height="814" viewBox="0 0 815 814" fill="none" xmlns="http://www.w3.org/2000/svg">
<path d="M306.263 759.157L49.5315 483.931C8.20486 439.622 10.5422 370.139 54.7649 328.722L352.907 49.5213C397.13 8.11342 466.476 10.4553 507.803 55.3528L764.535 330.578C805.861 374.291 803.524 443.783 759.301 485.191L461.159 764.4C416.936 805.808 347.59 803.457 306.263 759.157Z" stroke="black" stroke-width="40" stroke-miterlimit="10"/>
<path d="M67.8109 543.739L126.737 171.674C136.226 111.773 192.377 70.9252 252.151 80.4327L655.202 144.523C715.228 154.068 755.511 211.832 746.264 270.183L687.338 642.248C677.849 702.149 621.698 742.997 561.924 733.489L158.873 669.399C99.0899 659.892 58.322 603.63 67.8109 543.739Z" stroke="black" stroke-width="40" stroke-miterlimit="10"/>
<path d="M557.033 439.616L406.462 590L266.604 450.315L255.967 439.616C217.344 401.041 217.344 338.507 255.967 299.932C275.279 280.644 300.55 271 325.821 271C351.168 271 376.439 280.644 395.75 299.932L406.462 310.63L417.174 299.932C436.486 280.644 461.757 271 487.103 271C512.45 271 537.721 280.644 557.033 299.932C595.656 338.507 595.656 401.041 557.033 439.616Z" fill="#7868E6"/>
</svg>
